<mxfile host="app.diagrams.net" modified="2024-01-07T03:02:17.889Z" agent="Mozilla/5.0 (Windows NT 10.0; Win64; x64) AppleWebKit/537.36 (KHTML, like Gecko) Chrome/119.0.0.0 Safari/537.36 OPR/105.0.0.0" version="22.1.17" etag="l36RX5KVTJl8TdbDE-ly" type="github">
  <diagram name="Page-1" id="0YfJmFUZx_hNG3Ler4cj">
    <mxGraphModel>
      <root>
        <mxCell id="0" />
        <mxCell id="1" parent="0" />
      </root>
    </mxGraphModel>
  </diagram>
</mxfile>
